<?xml version="1.0" encoding="UTF-8" standalone="no"?>
<!DOCTYPE svg PUBLIC "-//W3C//DTD SVG 1.1//EN" "http://www.w3.org/Graphics/SVG/1.1/DTD/svg11.dtd">
<svg width="100%" height="100%" viewBox="0 0 500 500" version="1.1" xmlns="http://www.w3.org/2000/svg" xmlns:xlink="http://www.w3.org/1999/xlink" xml:space="preserve" xmlns:serif="http://www.serif.com/" style="fill-rule:evenodd;clip-rule:evenodd;stroke-linejoin:round;stroke-miterlimit:2;">
    <circle cx="250" cy="250" r="111.163" style="fill:rgb(23,20,21);"/>
    <circle cx="250" cy="250" r="111.163" style="fill:rgb(23,20,21);"/>
    <g transform="matrix(1,0,0,1,-0.386718,-7.60156)">
        <path d="M250.387,56.219L282.953,121.352L217.82,121.352L250.387,56.219Z" style="fill:rgb(23,20,21);"/>
    </g>
    <g transform="matrix(0.707107,0.707107,-0.707107,0.707107,255.102,-109.202)">
        <path d="M250.387,56.219L282.953,121.352L217.82,121.352L250.387,56.219Z" style="fill:rgb(23,20,21);"/>
    </g>
    <g transform="matrix(2.22045e-16,1,-1,2.22045e-16,507.602,-0.386718)">
        <path d="M250.387,56.219L282.953,121.352L217.82,121.352L250.387,56.219Z" style="fill:rgb(23,20,21);"/>
    </g>
    <g transform="matrix(-0.707107,0.707107,-0.707107,-0.707107,609.202,255.102)">
        <path d="M250.387,56.219L282.953,121.352L217.82,121.352L250.387,56.219Z" style="fill:rgb(23,20,21);"/>
    </g>
    <g transform="matrix(-1,2.77556e-16,-2.77556e-16,-1,500.387,507.602)">
        <path d="M250.387,56.219L282.953,121.352L217.82,121.352L250.387,56.219Z" style="fill:rgb(23,20,21);"/>
    </g>
    <g transform="matrix(-0.707107,-0.707107,0.707107,-0.707107,244.898,609.202)">
        <path d="M250.387,56.219L282.953,121.352L217.82,121.352L250.387,56.219Z" style="fill:rgb(23,20,21);"/>
    </g>
    <g transform="matrix(-4.44089e-16,-1,1,-4.44089e-16,-7.60156,500.387)">
        <path d="M250.387,56.219L282.953,121.352L217.82,121.352L250.387,56.219Z" style="fill:rgb(23,20,21);"/>
    </g>
    <g transform="matrix(0.707107,-0.707107,0.707107,0.707107,-109.202,244.898)">
        <path d="M250.387,56.219L282.953,121.352L217.82,121.352L250.387,56.219Z" style="fill:rgb(23,20,21);"/>
    </g>
</svg>
